{
    "asset" : {
        "generator" : "Khronos glTF Blender I/O v1.2.75",
        "version" : "2.0"
    },
    "scene" : 0,
    "scenes" : [
        {
            "name" : "Scene",
            "nodes" : [
                12
            ]
        }
    ],
    "nodes" : [
        {
            "mesh" : 0,
            "name" : "defaultMaterial"
        },
        {
            "children" : [
                0
            ],
            "name" : "Eyes_high"
        },
        {
            "mesh" : 1,
            "name" : "defaultMaterial.001"
        },
        {
            "children" : [
                2
            ],
            "name" : "Griva_low"
        },
        {
            "mesh" : 2,
            "name" : "defaultMaterial.004"
        },
        {
            "children" : [
                4
            ],
            "name" : "Horse_low"
        },
        {
            "mesh" : 3,
            "name" : "defaultMaterial.003"
        },
        {
            "children" : [
                6
            ],
            "name" : "Hvost_low"
        },
        {
            "mesh" : 4,
            "name" : "defaultMaterial.002"
        },
        {
            "children" : [
                8
            ],
            "name" : "Hvostik_3_low"
        },
        {
            "children" : [
                1,
                3,
                5,
                7,
                9
            ],
            "name" : "Collada visual scene group",
            "rotation" : [
                0.7071068286895752,
                0,
                0,
                0.7071068286895752
            ]
        },
        {
            "children" : [
                10
            ],
            "name" : "RootNode (model correction matrix)",
            "rotation" : [
                -0.09278609603643417,
                0.030248427763581276,
                0.002820106688886881,
                0.9952225089073181
            ]
        },
        {
            "children" : [
                11
            ],
            "name" : "RootNode (gltf orientation matrix)",
            "rotation" : [
                -0.7071067690849304,
                0,
                0,
                0.7071067690849304
            ],
            "scale" : [
                17.283065795898438,
                17.283065795898438,
                17.283065795898438
            ]
        }
    ],
    "materials" : [
        {
            "doubleSided" : true,
            "emissiveFactor" : [
                0,
                0,
                0
            ],
            "name" : "Eyes_high0",
            "normalTexture" : {
                "index" : 0,
                "texCoord" : 0
            },
            "occlusionTexture" : {
                "index" : 1,
                "texCoord" : 0
            },
            "pbrMetallicRoughness" : {
                "baseColorTexture" : {
                    "index" : 2,
                    "texCoord" : 0
                },
                "metallicRoughnessTexture" : {
                    "index" : 1,
                    "texCoord" : 0
                }
            }
        },
        {
            "doubleSided" : true,
            "emissiveFactor" : [
                0,
                0,
                0
            ],
            "name" : "Griva_low0",
            "normalTexture" : {
                "index" : 3,
                "texCoord" : 0
            },
            "occlusionTexture" : {
                "index" : 4,
                "texCoord" : 0
            },
            "pbrMetallicRoughness" : {
                "baseColorTexture" : {
                    "index" : 5,
                    "texCoord" : 0
                },
                "metallicRoughnessTexture" : {
                    "index" : 4,
                    "texCoord" : 0
                }
            }
        },
        {
            "doubleSided" : true,
            "emissiveFactor" : [
                0,
                0,
                0
            ],
            "name" : "Horse_low0",
            "normalTexture" : {
                "index" : 6,
                "texCoord" : 0
            },
            "occlusionTexture" : {
                "index" : 7,
                "texCoord" : 0
            },
            "pbrMetallicRoughness" : {
                "baseColorTexture" : {
                    "index" : 8,
                    "texCoord" : 0
                },
                "metallicRoughnessTexture" : {
                    "index" : 7,
                    "texCoord" : 0
                }
            }
        },
        {
            "doubleSided" : true,
            "emissiveFactor" : [
                0,
                0,
                0
            ],
            "name" : "Hvost_low0",
            "normalTexture" : {
                "index" : 9,
                "texCoord" : 0
            },
            "occlusionTexture" : {
                "index" : 10,
                "texCoord" : 0
            },
            "pbrMetallicRoughness" : {
                "baseColorTexture" : {
                    "index" : 11,
                    "texCoord" : 0
                },
                "metallicRoughnessTexture" : {
                    "index" : 10,
                    "texCoord" : 0
                }
            }
        },
        {
            "doubleSided" : true,
            "emissiveFactor" : [
                0,
                0,
                0
            ],
            "name" : "Hvostik_3_low0",
            "normalTexture" : {
                "index" : 12,
                "texCoord" : 0
            },
            "occlusionTexture" : {
                "index" : 13,
                "texCoord" : 0
            },
            "pbrMetallicRoughness" : {
                "baseColorTexture" : {
                    "index" : 14,
                    "texCoord" : 0
                },
                "metallicRoughnessTexture" : {
                    "index" : 13,
                    "texCoord" : 0
                }
            }
        }
    ],
    "meshes" : [
        {
            "name" : "defaultMaterial",
            "primitives" : [
                {
                    "attributes" : {
                        "POSITION" : 0,
                        "NORMAL" : 1,
                        "TEXCOORD_0" : 2
                    },
                    "indices" : 3,
                    "material" : 0
                }
            ]
        },
        {
            "name" : "defaultMaterial.001",
            "primitives" : [
                {
                    "attributes" : {
                        "POSITION" : 4,
                        "NORMAL" : 5,
                        "TEXCOORD_0" : 6
                    },
                    "indices" : 7,
                    "material" : 1
                }
            ]
        },
        {
            "name" : "defaultMaterial.004",
            "primitives" : [
                {
                    "attributes" : {
                        "POSITION" : 8,
                        "NORMAL" : 9,
                        "TEXCOORD_0" : 10
                    },
                    "indices" : 11,
                    "material" : 2
                }
            ]
        },
        {
            "name" : "defaultMaterial.003",
            "primitives" : [
                {
                    "attributes" : {
                        "POSITION" : 12,
                        "NORMAL" : 13,
                        "TEXCOORD_0" : 14
                    },
                    "indices" : 15,
                    "material" : 3
                }
            ]
        },
        {
            "name" : "defaultMaterial.002",
            "primitives" : [
                {
                    "attributes" : {
                        "POSITION" : 16,
                        "NORMAL" : 17,
                        "TEXCOORD_0" : 18
                    },
                    "indices" : 19,
                    "material" : 4
                }
            ]
        }
    ],
    "textures" : [
        {
            "source" : 0
        },
        {
            "source" : 1
        },
        {
            "source" : 2
        },
        {
            "source" : 3
        },
        {
            "source" : 4
        },
        {
            "source" : 5
        },
        {
            "source" : 6
        },
        {
            "source" : 7
        },
        {
            "source" : 8
        },
        {
            "source" : 9
        },
        {
            "source" : 10
        },
        {
            "source" : 11
        },
        {
            "source" : 12
        },
        {
            "source" : 13
        },
        {
            "source" : 14
        }
    ],
    "images" : [
        {
            "mimeType" : "image/png",
            "name" : "Eyes_high0_normal",
            "uri" : "textures/Eyes_high0_normal.png"
        },
        {
            "mimeType" : "image/png",
            "name" : "Eyes_high0_metallicRoughness",
            "uri" : "textures/Eyes_high0_metallicRoughness.png"
        },
        {
            "mimeType" : "image/jpeg",
            "name" : "Eyes_high0_baseColor",
            "uri" : "textures/Eyes_high0_baseColor.jpg"
        },
        {
            "mimeType" : "image/png",
            "name" : "Griva_low0_normal",
            "uri" : "textures/Griva_low0_normal.png"
        },
        {
            "mimeType" : "image/png",
            "name" : "Griva_low0_metallicRoughness",
            "uri" : "textures/Griva_low0_metallicRoughness.png"
        },
        {
            "mimeType" : "image/jpeg",
            "name" : "Griva_low0_baseColor",
            "uri" : "textures/Griva_low0_baseColor.jpg"
        },
        {
            "mimeType" : "image/png",
            "name" : "Horse_low0_normal",
            "uri" : "textures/Horse_low0_normal.png"
        },
        {
            "mimeType" : "image/png",
            "name" : "Horse_low0_metallicRoughness",
            "uri" : "textures/Horse_low0_metallicRoughness.png"
        },
        {
            "mimeType" : "image/jpeg",
            "name" : "Horse_low0_baseColor",
            "uri" : "textures/Horse_low0_baseColor.jpg"
        },
        {
            "mimeType" : "image/png",
            "name" : "Hvost_low0_normal",
            "uri" : "textures/Hvost_low0_normal.png"
        },
        {
            "mimeType" : "image/png",
            "name" : "Hvost_low0_metallicRoughness",
            "uri" : "textures/Hvost_low0_metallicRoughness.png"
        },
        {
            "mimeType" : "image/jpeg",
            "name" : "Hvost_low0_baseColor",
            "uri" : "textures/Hvost_low0_baseColor.jpg"
        },
        {
            "mimeType" : "image/png",
            "name" : "Hvostik_3_low0_normal",
            "uri" : "textures/Hvostik_3_low0_normal.png"
        },
        {
            "mimeType" : "image/png",
            "name" : "Hvostik_3_low0_metallicRoughness",
            "uri" : "textures/Hvostik_3_low0_metallicRoughness.png"
        },
        {
            "mimeType" : "image/jpeg",
            "name" : "Hvostik_3_low0_baseColor",
            "uri" : "textures/Hvostik_3_low0_baseColor.jpg"
        }
    ],
    "accessors" : [
        {
            "bufferView" : 0,
            "componentType" : 5126,
            "count" : 13145,
            "max" : [
                0.0463423989713192,
                0.5526679754257202,
                0.8528720140457153
            ],
            "min" : [
                -0.0856752023100853,
                0.485617995262146,
                0.7082729935646057
            ],
            "type" : "VEC3"
        },
        {
            "bufferView" : 1,
            "componentType" : 5126,
            "count" : 13145,
            "type" : "VEC3"
        },
        {
            "bufferView" : 2,
            "componentType" : 5126,
            "count" : 13145,
            "type" : "VEC2"
        },
        {
            "bufferView" : 3,
            "componentType" : 5123,
            "count" : 78006,
            "type" : "SCALAR"
        },
        {
            "bufferView" : 4,
            "componentType" : 5126,
            "count" : 17592,
            "max" : [
                0.12822499871253967,
                0.9251030087471008,
                0.850072979927063
            ],
            "min" : [
                -0.3757469952106476,
                0.5757629871368408,
                0.2613140046596527
            ],
            "type" : "VEC3"
        },
        {
            "bufferView" : 5,
            "componentType" : 5126,
            "count" : 17592,
            "type" : "VEC3"
        },
        {
            "bufferView" : 6,
            "componentType" : 5126,
            "count" : 17592,
            "type" : "VEC2"
        },
        {
            "bufferView" : 7,
            "componentType" : 5123,
            "count" : 99930,
            "type" : "SCALAR"
        },
        {
            "bufferView" : 8,
            "componentType" : 5126,
            "count" : 46146,
            "max" : [
                0.5582770109176636,
                0.8581330180168152,
                1
            ],
            "min" : [
                -0.6041479706764221,
                -0.9251030087471008,
                -1
            ],
            "type" : "VEC3"
        },
        {
            "bufferView" : 9,
            "componentType" : 5126,
            "count" : 46146,
            "type" : "VEC3"
        },
        {
            "bufferView" : 10,
            "componentType" : 5126,
            "count" : 46146,
            "type" : "VEC2"
        },
        {
            "bufferView" : 11,
            "componentType" : 5123,
            "count" : 271560,
            "type" : "SCALAR"
        },
        {
            "bufferView" : 12,
            "componentType" : 5126,
            "count" : 13342,
            "max" : [
                0.6041479706764221,
                0.19973500072956085,
                -0.47659701108932495
            ],
            "min" : [
                0.021203700453042984,
                -0.3162600100040436,
                -0.9696530103683472
            ],
            "type" : "VEC3"
        },
        {
            "bufferView" : 13,
            "componentType" : 5126,
            "count" : 13342,
            "type" : "VEC3"
        },
        {
            "bufferView" : 14,
            "componentType" : 5126,
            "count" : 13342,
            "type" : "VEC2"
        },
        {
            "bufferView" : 15,
            "componentType" : 5123,
            "count" : 77634,
            "type" : "SCALAR"
        },
        {
            "bufferView" : 16,
            "componentType" : 5126,
            "count" : 7403,
            "max" : [
                0.5418819785118103,
                0.17148800194263458,
                -0.5098850131034851
            ],
            "min" : [
                0.06901270151138306,
                -0.21997900307178497,
                -0.777334988117218
            ],
            "type" : "VEC3"
        },
        {
            "bufferView" : 17,
            "componentType" : 5126,
            "count" : 7403,
            "type" : "VEC3"
        },
        {
            "bufferView" : 18,
            "componentType" : 5126,
            "count" : 7403,
            "type" : "VEC2"
        },
        {
            "bufferView" : 19,
            "componentType" : 5123,
            "count" : 42780,
            "type" : "SCALAR"
        }
    ],
    "bufferViews" : [
        {
            "buffer" : 0,
            "byteLength" : 157740,
            "byteOffset" : 0
        },
        {
            "buffer" : 0,
            "byteLength" : 157740,
            "byteOffset" : 157740
        },
        {
            "buffer" : 0,
            "byteLength" : 105160,
            "byteOffset" : 315480
        },
        {
            "buffer" : 0,
            "byteLength" : 156012,
            "byteOffset" : 420640
        },
        {
            "buffer" : 0,
            "byteLength" : 211104,
            "byteOffset" : 576652
        },
        {
            "buffer" : 0,
            "byteLength" : 211104,
            "byteOffset" : 787756
        },
        {
            "buffer" : 0,
            "byteLength" : 140736,
            "byteOffset" : 998860
        },
        {
            "buffer" : 0,
            "byteLength" : 199860,
            "byteOffset" : 1139596
        },
        {
            "buffer" : 0,
            "byteLength" : 553752,
            "byteOffset" : 1339456
        },
        {
            "buffer" : 0,
            "byteLength" : 553752,
            "byteOffset" : 1893208
        },
        {
            "buffer" : 0,
            "byteLength" : 369168,
            "byteOffset" : 2446960
        },
        {
            "buffer" : 0,
            "byteLength" : 543120,
            "byteOffset" : 2816128
        },
        {
            "buffer" : 0,
            "byteLength" : 160104,
            "byteOffset" : 3359248
        },
        {
            "buffer" : 0,
            "byteLength" : 160104,
            "byteOffset" : 3519352
        },
        {
            "buffer" : 0,
            "byteLength" : 106736,
            "byteOffset" : 3679456
        },
        {
            "buffer" : 0,
            "byteLength" : 155268,
            "byteOffset" : 3786192
        },
        {
            "buffer" : 0,
            "byteLength" : 88836,
            "byteOffset" : 3941460
        },
        {
            "buffer" : 0,
            "byteLength" : 88836,
            "byteOffset" : 4030296
        },
        {
            "buffer" : 0,
            "byteLength" : 59224,
            "byteOffset" : 4119132
        },
        {
            "buffer" : 0,
            "byteLength" : 85560,
            "byteOffset" : 4178356
        }
    ],
    "buffers" : [
        {
            "byteLength" : 4263916,
            "uri" : "horse.bin"
        }
    ]
}
